<svg width="171" height="33" viewBox="0 0 171 33" fill="none" xmlns="http://www.w3.org/2000/svg">
<mask id="path-1-inside-1_1_1083" fill="white">
<path d="M0.5 11.6973C0.5 10.5927 1.39543 9.69727 2.5 9.69727H43.5C44.6046 9.69727 45.5 10.5927 45.5 11.6973C45.5 12.8018 44.6046 13.6973 43.5 13.6973H2.5C1.39543 13.6973 0.5 12.8018 0.5 11.6973Z"/>
</mask>
<path d="M0.5 11.6973C0.5 8.38356 3.18629 5.69727 6.5 5.69727H39.5C42.8137 5.69727 45.5 8.38356 45.5 11.6973C45.5 12.2277 45.2893 12.7364 44.9142 13.1115C44.5391 13.4866 44.0304 13.6973 43.5 13.6973H2.5H0.5H2.5C1.96957 13.6973 1.46086 13.4866 1.08579 13.1115C0.710714 12.7364 0.5 12.2277 0.5 11.6973L0.5 11.6973ZM45.5 13.6973H0.5H45.5ZM0.5 13.6973V9.69727V13.6973ZM45.5 9.69727V13.6973V9.69727Z" fill="#4BAF47" mask="url(#path-1-inside-1_1_1083)"/>
<rect x="51.5" y="9.69727" width="4" height="4" rx="2" fill="#4BAF47"/>
</svg>
