<svg width="40" height="41" viewBox="0 0 40 41" fill="none" xmlns="http://www.w3.org/2000/svg">
<rect y="0.5" width="40" height="40" rx="20" fill="#1F1E17"/>
<path d="M19.125 17.3555C19.5625 17.3555 19.9727 17.4375 20.3555 17.6016C20.7383 17.7656 21.071 17.9889 21.3535 18.2715C21.6361 18.554 21.8594 18.8867 22.0234 19.2695C22.1875 19.6523 22.2695 20.0625 22.2695 20.5C22.2695 20.9284 22.1875 21.334 22.0234 21.7168C21.8594 22.0996 21.6361 22.4346 21.3535 22.7217C21.071 23.0088 20.7383 23.2344 20.3555 23.3984C19.9727 23.5625 19.5625 23.6445 19.125 23.6445C18.6966 23.6445 18.291 23.5625 17.9082 23.3984C17.5254 23.2344 17.1904 23.0088 16.9033 22.7217C16.6162 22.4346 16.3906 22.0996 16.2266 21.7168C16.0625 21.334 15.9805 20.9284 15.9805 20.5C15.9805 20.0625 16.0625 19.6523 16.2266 19.2695C16.3906 18.8867 16.6162 18.554 16.9033 18.2715C17.1904 17.9889 17.5254 17.7656 17.9082 17.6016C18.291 17.4375 18.6966 17.3555 19.125 17.3555ZM19.125 22.5371C19.6901 22.5371 20.1732 22.3389 20.5742 21.9424C20.9753 21.5459 21.1758 21.0651 21.1758 20.5C21.1758 19.9349 20.9753 19.4518 20.5742 19.0508C20.1732 18.6497 19.6901 18.4492 19.125 18.4492C18.5599 18.4492 18.0791 18.6497 17.6826 19.0508C17.2861 19.4518 17.0879 19.9349 17.0879 20.5C17.0879 21.0651 17.2884 21.5459 17.6895 21.9424C18.0905 22.3389 18.569 22.5371 19.125 22.5371ZM23.1309 17.2324C23.1309 17.4329 23.0602 17.6038 22.9189 17.7451C22.7777 17.8864 22.6022 17.957 22.3926 17.957C22.1921 17.957 22.0212 17.8864 21.8799 17.7451C21.7386 17.6038 21.668 17.4329 21.668 17.2324C21.668 17.0228 21.7386 16.8473 21.8799 16.7061C22.0212 16.5648 22.1921 16.4941 22.3926 16.4941C22.6022 16.4941 22.7777 16.5648 22.9189 16.7061C23.0602 16.8473 23.1309 17.0228 23.1309 17.2324ZM25.209 17.9707C25.2272 18.2259 25.2409 18.5859 25.25 19.0508C25.25 19.5065 25.25 19.9873 25.25 20.4932C25.25 20.999 25.25 21.4844 25.25 21.9492C25.2409 22.4141 25.2272 22.7741 25.209 23.0293C25.1908 23.5124 25.111 23.9704 24.9697 24.4033C24.8285 24.8363 24.5801 25.2305 24.2246 25.5859C23.8691 25.9505 23.4749 26.2012 23.042 26.3379C22.609 26.4746 22.1465 26.5566 21.6543 26.584C21.3991 26.5931 21.0391 26.6022 20.5742 26.6113C20.1185 26.6204 19.6377 26.625 19.1318 26.625C18.626 26.625 18.1406 26.6204 17.6758 26.6113C17.2109 26.6022 16.8509 26.5931 16.5957 26.584C16.1035 26.5566 15.6432 26.4746 15.2148 26.3379C14.7865 26.2012 14.39 25.9505 14.0254 25.5859C13.6699 25.2305 13.4238 24.8363 13.2871 24.4033C13.1504 23.9704 13.0684 23.5124 13.041 23.0293C13.0228 22.7741 13.0137 22.4141 13.0137 21.9492C13.0046 21.4844 13 20.999 13 20.4932C13 19.9873 13.0046 19.502 13.0137 19.0371C13.0137 18.5814 13.0228 18.2259 13.041 17.9707C13.0684 17.4785 13.1504 17.016 13.2871 16.583C13.4238 16.1501 13.6699 15.7559 14.0254 15.4004C14.39 15.0449 14.7887 14.7965 15.2217 14.6553C15.6546 14.514 16.1126 14.4342 16.5957 14.416C16.8509 14.3978 17.2109 14.3841 17.6758 14.375C18.1406 14.375 18.626 14.375 19.1318 14.375C19.6377 14.375 20.1185 14.375 20.5742 14.375C21.0391 14.3841 21.3991 14.3978 21.6543 14.416C22.1465 14.4434 22.609 14.5254 23.042 14.6621C23.4749 14.7988 23.8691 15.0449 24.2246 15.4004C24.5801 15.765 24.8285 16.1615 24.9697 16.5898C25.111 17.0182 25.1908 17.4785 25.209 17.9707ZM23.9102 24.1094C23.9831 23.9089 24.0378 23.6491 24.0742 23.3301C24.1107 23.0111 24.1357 22.6784 24.1494 22.332C24.1631 21.9857 24.1654 21.6484 24.1562 21.3203C24.1562 20.9922 24.1562 20.7188 24.1562 20.5C24.1562 20.2721 24.1562 19.9941 24.1562 19.666C24.1654 19.3379 24.1631 19.0007 24.1494 18.6543C24.1357 18.3079 24.1107 17.9798 24.0742 17.6699C24.0378 17.3509 23.9831 17.0911 23.9102 16.8906C23.8008 16.6172 23.6458 16.3802 23.4453 16.1797C23.2448 15.9792 23.0078 15.8242 22.7344 15.7148C22.5339 15.6419 22.2741 15.5872 21.9551 15.5508C21.6452 15.5143 21.3171 15.4893 20.9707 15.4756C20.6243 15.4619 20.2871 15.4596 19.959 15.4688C19.6309 15.4688 19.3529 15.4688 19.125 15.4688C18.9062 15.4688 18.6328 15.4688 18.3047 15.4688C17.9766 15.4596 17.6393 15.4619 17.293 15.4756C16.9466 15.4893 16.6139 15.5143 16.2949 15.5508C15.9759 15.5872 15.7161 15.6419 15.5156 15.7148C15.2422 15.8242 15.0052 15.9792 14.8047 16.1797C14.6042 16.3802 14.4538 16.6172 14.3535 16.8906C14.2715 17.0911 14.2122 17.3509 14.1758 17.6699C14.1393 17.9798 14.1165 18.3079 14.1074 18.6543C14.0983 19.0007 14.0938 19.3379 14.0938 19.666C14.1029 19.9941 14.1074 20.2721 14.1074 20.5C14.1074 20.7188 14.1029 20.9922 14.0938 21.3203C14.0938 21.6484 14.0983 21.9857 14.1074 22.332C14.1165 22.6784 14.1393 23.0111 14.1758 23.3301C14.2122 23.6491 14.2715 23.9089 14.3535 24.1094C14.4629 24.3828 14.6178 24.6175 14.8184 24.8135C15.0189 25.0094 15.2513 25.1621 15.5156 25.2715C15.7161 25.3535 15.9759 25.4128 16.2949 25.4492C16.6139 25.4857 16.9466 25.5085 17.293 25.5176C17.6393 25.5267 17.9766 25.5312 18.3047 25.5312C18.6328 25.5221 18.9062 25.5176 19.125 25.5176C19.3529 25.5176 19.6309 25.5221 19.959 25.5312C20.2871 25.5312 20.6243 25.5267 20.9707 25.5176C21.3171 25.5085 21.6452 25.4857 21.9551 25.4492C22.2741 25.4128 22.5339 25.3535 22.7344 25.2715C23.0078 25.1621 23.2448 25.0072 23.4453 24.8066C23.6458 24.6061 23.8008 24.3737 23.9102 24.1094Z" fill="white"/>
</svg>
