<svg width="16" height="17" viewBox="0 0 16 17" fill="none" xmlns="http://www.w3.org/2000/svg">
<g clip-path="url(#clip0_1_1140)">
<path d="M6 0.394531C5.17708 0.394531 4.40104 0.550781 3.67188 0.863281C2.94271 1.17578 2.30469 1.60547 1.75781 2.15234C1.21094 2.69922 0.78125 3.33724 0.46875 4.06641C0.15625 4.79557 0 5.57161 0 6.39453C0 7.4987 0.291667 8.62891 0.875 9.78516C1.44792 10.931 2.08854 11.9779 2.79688 12.9258C3.50521 13.8737 4.16146 14.6602 4.76562 15.2852C5.38021 15.9102 5.71354 16.2487 5.76562 16.3008C5.79688 16.332 5.83333 16.3555 5.875 16.3711C5.91667 16.3867 5.95833 16.3945 6 16.3945C6.04167 16.3945 6.08333 16.3867 6.125 16.3711C6.16667 16.3555 6.20312 16.332 6.23438 16.3008C6.28646 16.2487 6.61979 15.9102 7.23438 15.2852C7.83854 14.6602 8.49479 13.8737 9.20312 12.9258C9.91146 11.9779 10.5521 10.931 11.125 9.78516C11.7083 8.62891 12 7.4987 12 6.39453C12 5.57161 11.8438 4.79557 11.5312 4.06641C11.2188 3.33724 10.7891 2.69922 10.2422 2.15234C9.69531 1.60547 9.05729 1.17578 8.32812 0.863281C7.59896 0.550781 6.82292 0.394531 6 0.394531ZM6 9.72266C5.54167 9.72266 5.10938 9.63932 4.70312 9.47266C4.29688 9.29557 3.94271 9.05599 3.64062 8.75391C3.33854 8.45182 3.09896 8.09766 2.92188 7.69141C2.75521 7.28516 2.67188 6.85286 2.67188 6.39453C2.67188 5.9362 2.75521 5.50391 2.92188 5.09766C3.09896 4.69141 3.33854 4.33724 3.64062 4.03516C3.94271 3.73307 4.29688 3.49349 4.70312 3.31641C5.10938 3.14974 5.54167 3.06641 6 3.06641C6.45833 3.06641 6.89062 3.14974 7.29688 3.31641C7.70312 3.49349 8.05729 3.73307 8.35938 4.03516C8.66146 4.33724 8.90104 4.69141 9.07812 5.09766C9.24479 5.50391 9.32812 5.9362 9.32812 6.39453C9.32812 6.85286 9.24479 7.28516 9.07812 7.69141C8.90104 8.09766 8.66146 8.45182 8.35938 8.75391C8.05729 9.05599 7.70312 9.29557 7.29688 9.47266C6.89062 9.63932 6.45833 9.72266 6 9.72266Z" fill="#EEC044"/>
</g>
<defs>
<clipPath id="clip0_1_1140">
<rect width="16" height="16" fill="white" transform="matrix(1 0 0 -1 0 16.3945)"/>
</clipPath>
</defs>
</svg>
