<svg width="15" height="15" viewBox="0 0 15 15" fill="none" xmlns="http://www.w3.org/2000/svg">
<path d="M14.1553 11.4629C14.1553 11.6387 14.1201 11.873 14.0498 12.166C13.9795 12.459 13.9092 12.6875 13.8389 12.8516C13.6982 13.1914 13.2881 13.5488 12.6084 13.9238C11.9756 14.2637 11.3545 14.4336 10.7451 14.4336C10.5576 14.4336 10.3818 14.4219 10.2178 14.3984C10.042 14.375 9.84863 14.334 9.6377 14.2754C9.42676 14.2051 9.26855 14.1523 9.16309 14.1172C9.05762 14.082 8.87012 14.0176 8.60059 13.9238C8.33105 13.8184 8.16699 13.7539 8.1084 13.7305C7.45215 13.4961 6.86621 13.2207 6.35059 12.9043C5.50684 12.377 4.62207 11.6504 3.69629 10.7246C2.78223 9.81055 2.06152 8.93164 1.53418 8.08789C1.20605 7.57227 0.924805 6.98633 0.69043 6.33008C0.678711 6.25977 0.620117 6.0957 0.514648 5.83789C0.420898 5.56836 0.350586 5.38086 0.303711 5.27539C0.268555 5.16992 0.22168 5.01172 0.163086 4.80078C0.104492 4.58984 0.0634766 4.39648 0.0400391 4.2207C0.0166016 4.04492 0.00488281 3.86914 0.00488281 3.69336C0.00488281 3.07227 0.174805 2.45117 0.514648 1.83008C0.889648 1.15039 1.24707 0.740234 1.58691 0.599609C1.75098 0.529297 1.97949 0.458984 2.27246 0.388672C2.56543 0.318359 2.7998 0.283203 2.97559 0.283203C3.06934 0.283203 3.13965 0.294922 3.18652 0.318359C3.30371 0.353516 3.47949 0.605469 3.71387 1.07422C3.7959 1.20312 3.90137 1.38477 4.03027 1.61914C4.14746 1.85352 4.26465 2.06445 4.38184 2.25195C4.4873 2.45117 4.58691 2.63281 4.68066 2.79688C4.7041 2.82031 4.7627 2.90234 4.85645 3.04297C4.96191 3.18359 5.03809 3.30664 5.08496 3.41211C5.13184 3.50586 5.15527 3.59961 5.15527 3.69336C5.15527 3.82227 5.05566 3.98633 4.85645 4.18555C4.66895 4.39648 4.46387 4.58398 4.24121 4.74805C4.01855 4.91211 3.80762 5.08789 3.6084 5.27539C3.4209 5.46289 3.32715 5.61523 3.32715 5.73242C3.32715 5.80273 3.34473 5.87891 3.37988 5.96094C3.41504 6.05469 3.44434 6.125 3.46777 6.17188C3.49121 6.21875 3.53809 6.30078 3.6084 6.41797C3.67871 6.52344 3.71387 6.58789 3.71387 6.61133C4.22949 7.52539 4.81543 8.31055 5.47168 8.9668C6.12793 9.62305 6.91309 10.2031 7.82715 10.707C7.83887 10.7188 7.90332 10.7598 8.02051 10.8301C8.1377 10.9004 8.21973 10.9473 8.2666 10.9707C8.31348 10.9941 8.37793 11.0234 8.45996 11.0586C8.55371 11.0938 8.62988 11.1113 8.68848 11.1113C8.81738 11.1113 8.97559 11.0117 9.16309 10.8125C9.35059 10.625 9.52637 10.4199 9.69043 10.1973C9.85449 9.97461 10.0361 9.76367 10.2354 9.56445C10.4346 9.37695 10.6045 9.2832 10.7451 9.2832C10.8389 9.2832 10.9326 9.30664 11.0264 9.35352C11.1201 9.40039 11.2373 9.4707 11.3779 9.56445C11.5186 9.66992 11.6064 9.72852 11.6416 9.74023C11.8057 9.8457 11.9814 9.95117 12.1689 10.0566C12.3682 10.1621 12.585 10.2793 12.8193 10.4082C13.0537 10.5371 13.2295 10.6367 13.3467 10.707C13.8154 10.9414 14.0732 11.123 14.1201 11.252C14.1436 11.2988 14.1553 11.3691 14.1553 11.4629Z" fill="#EEC044"/>
</svg>
